<svg xmlns="http://www.w3.org/2000/svg" xmlns:xlink="http://www.w3.org/1999/xlink" version="1.1" class="marks" width="959" height="433" viewBox="0 0 959 433"><rect width="959" height="433" fill="white"/><g fill="none" stroke-miterlimit="10" transform="translate(53,27)"><g class="mark-group role-frame root" role="graphics-object" aria-roledescription="group mark container"><g transform="translate(0,0)"><path class="background" aria-hidden="true" d="M0.5,0.5h810v300h-810Z" stroke="#ddd"/><g><g class="mark-group role-axis" aria-hidden="true"><g transform="translate(0.5,0.5)"><path class="background" aria-hidden="true" d="M0,0h0v0h0Z" pointer-events="none"/><g><g class="mark-rule role-axis-grid" pointer-events="none"><line transform="translate(0,300)" x2="810" y2="0" stroke="#ddd" stroke-width="1" opacity="1"/><line transform="translate(0,263)" x2="810" y2="0" stroke="#ddd" stroke-width="1" opacity="1"/><line transform="translate(0,225)" x2="810" y2="0" stroke="#ddd" stroke-width="1" opacity="1"/><line transform="translate(0,188)" x2="810" y2="0" stroke="#ddd" stroke-width="1" opacity="1"/><line transform="translate(0,150)" x2="810" y2="0" stroke="#ddd" stroke-width="1" opacity="1"/><line transform="translate(0,113)" x2="810" y2="0" stroke="#ddd" stroke-width="1" opacity="1"/><line transform="translate(0,75)" x2="810" y2="0" stroke="#ddd" stroke-width="1" opacity="1"/><line transform="translate(0,38)" x2="810" y2="0" stroke="#ddd" stroke-width="1" opacity="1"/><line transform="translate(0,0)" x2="810" y2="0" stroke="#ddd" stroke-width="1" opacity="1"/></g></g><path class="foreground" aria-hidden="true" d="" pointer-events="none" display="none"/></g></g><g class="mark-group role-axis" role="graphics-symbol" aria-roledescription="axis" aria-label="X-axis titled 'Item' for a discrete scale with 16 values: Ancient Fruit, Apple, Apricot, Blueberry, Cactus Fruit, ending with Sweet Gem Berry"><g transform="translate(0.5,300.5)"><path class="background" aria-hidden="true" d="M0,0h0v0h0Z" pointer-events="none"/><g><g class="mark-rule role-axis-tick" pointer-events="none"><line transform="translate(30,0)" x2="0" y2="5" stroke="#888" stroke-width="1" opacity="1"/><line transform="translate(80,0)" x2="0" y2="5" stroke="#888" stroke-width="1" opacity="1"/><line transform="translate(130,0)" x2="0" y2="5" stroke="#888" stroke-width="1" opacity="1"/><line transform="translate(180,0)" x2="0" y2="5" stroke="#888" stroke-width="1" opacity="1"/><line transform="translate(230,0)" x2="0" y2="5" stroke="#888" stroke-width="1" opacity="1"/><line transform="translate(280,0)" x2="0" y2="5" stroke="#888" stroke-width="1" opacity="1"/><line transform="translate(330,0)" x2="0" y2="5" stroke="#888" stroke-width="1" opacity="1"/><line transform="translate(380,0)" x2="0" y2="5" stroke="#888" stroke-width="1" opacity="1"/><line transform="translate(430,0)" x2="0" y2="5" stroke="#888" stroke-width="1" opacity="1"/><line transform="translate(480,0)" x2="0" y2="5" stroke="#888" stroke-width="1" opacity="1"/><line transform="translate(530,0)" x2="0" y2="5" stroke="#888" stroke-width="1" opacity="1"/><line transform="translate(580,0)" x2="0" y2="5" stroke="#888" stroke-width="1" opacity="1"/><line transform="translate(630,0)" x2="0" y2="5" stroke="#888" stroke-width="1" opacity="1"/><line transform="translate(680,0)" x2="0" y2="5" stroke="#888" stroke-width="1" opacity="1"/><line transform="translate(730,0)" x2="0" y2="5" stroke="#888" stroke-width="1" opacity="1"/><line transform="translate(780,0)" x2="0" y2="5" stroke="#888" stroke-width="1" opacity="1"/></g><g class="mark-text role-axis-label" pointer-events="none"><text text-anchor="end" transform="translate(29.5,7) rotate(270) translate(0,3)" font-family="sans-serif" font-size="10px" fill="#000" opacity="1">Ancient Fruit</text><text text-anchor="end" transform="translate(79.5,7) rotate(270) translate(0,3)" font-family="sans-serif" font-size="10px" fill="#000" opacity="1">Apple</text><text text-anchor="end" transform="translate(129.5,7) rotate(270) translate(0,3)" font-family="sans-serif" font-size="10px" fill="#000" opacity="1">Apricot</text><text text-anchor="end" transform="translate(179.5,7) rotate(270) translate(0,3)" font-family="sans-serif" font-size="10px" fill="#000" opacity="1">Blueberry</text><text text-anchor="end" transform="translate(229.5,7) rotate(270) translate(0,3)" font-family="sans-serif" font-size="10px" fill="#000" opacity="1">Cactus Fruit</text><text text-anchor="end" transform="translate(279.5,7) rotate(270) translate(0,3)" font-family="sans-serif" font-size="10px" fill="#000" opacity="1">Cherry</text><text text-anchor="end" transform="translate(329.5,7) rotate(270) translate(0,3)" font-family="sans-serif" font-size="10px" fill="#000" opacity="1">Cranberry</text><text text-anchor="end" transform="translate(379.5,7) rotate(270) translate(0,3)" font-family="sans-serif" font-size="10px" fill="#000" opacity="1">Grape</text><text text-anchor="end" transform="translate(429.5,7) rotate(270) translate(0,3)" font-family="sans-serif" font-size="10px" fill="#000" opacity="1">Melon</text><text text-anchor="end" transform="translate(479.5,7) rotate(270) translate(0,3)" font-family="sans-serif" font-size="10px" fill="#000" opacity="1">Orange</text><text text-anchor="end" transform="translate(529.5,7) rotate(270) translate(0,3)" font-family="sans-serif" font-size="10px" fill="#000" opacity="1">Peach</text><text text-anchor="end" transform="translate(579.5,7) rotate(270) translate(0,3)" font-family="sans-serif" font-size="10px" fill="#000" opacity="1">Pomegranate</text><text text-anchor="end" transform="translate(629.5,7) rotate(270) translate(0,3)" font-family="sans-serif" font-size="10px" fill="#000" opacity="1">Rhubarb</text><text text-anchor="end" transform="translate(679.5,7) rotate(270) translate(0,3)" font-family="sans-serif" font-size="10px" fill="#000" opacity="1">Starfruit</text><text text-anchor="end" transform="translate(729.5,7) rotate(270) translate(0,3)" font-family="sans-serif" font-size="10px" fill="#000" opacity="1">Strawberry</text><text text-anchor="end" transform="translate(779.5,7) rotate(270) translate(0,3)" font-family="sans-serif" font-size="10px" fill="#000" opacity="1">Sweet Gem Berry</text></g><g class="mark-rule role-axis-domain" pointer-events="none"><line transform="translate(0,0)" x2="810" y2="0" stroke="#888" stroke-width="1" opacity="1"/></g><g class="mark-text role-axis-title" pointer-events="none"><text text-anchor="middle" transform="translate(405,98.9111328125)" font-family="sans-serif" font-size="11px" font-weight="bold" fill="#000" opacity="1">Item</text></g></g><path class="foreground" aria-hidden="true" d="" pointer-events="none" display="none"/></g></g><g class="mark-group role-axis" role="graphics-symbol" aria-roledescription="axis" aria-label="Y-axis titled 'Seasonal Profit Per Square' for a linear scale with values from 0 to 8,000"><g transform="translate(0.5,0.5)"><path class="background" aria-hidden="true" d="M0,0h0v0h0Z" pointer-events="none"/><g><g class="mark-rule role-axis-tick" pointer-events="none"><line transform="translate(0,300)" x2="-5" y2="0" stroke="#888" stroke-width="1" opacity="1"/><line transform="translate(0,263)" x2="-5" y2="0" stroke="#888" stroke-width="1" opacity="1"/><line transform="translate(0,225)" x2="-5" y2="0" stroke="#888" stroke-width="1" opacity="1"/><line transform="translate(0,188)" x2="-5" y2="0" stroke="#888" stroke-width="1" opacity="1"/><line transform="translate(0,150)" x2="-5" y2="0" stroke="#888" stroke-width="1" opacity="1"/><line transform="translate(0,113)" x2="-5" y2="0" stroke="#888" stroke-width="1" opacity="1"/><line transform="translate(0,75)" x2="-5" y2="0" stroke="#888" stroke-width="1" opacity="1"/><line transform="translate(0,38)" x2="-5" y2="0" stroke="#888" stroke-width="1" opacity="1"/><line transform="translate(0,0)" x2="-5" y2="0" stroke="#888" stroke-width="1" opacity="1"/></g><g class="mark-text role-axis-label" pointer-events="none"><text text-anchor="end" transform="translate(-7,303)" font-family="sans-serif" font-size="10px" fill="#000" opacity="1">0</text><text text-anchor="end" transform="translate(-7,265.5)" font-family="sans-serif" font-size="10px" fill="#000" opacity="1">1,000</text><text text-anchor="end" transform="translate(-7,228)" font-family="sans-serif" font-size="10px" fill="#000" opacity="1">2,000</text><text text-anchor="end" transform="translate(-7,190.5)" font-family="sans-serif" font-size="10px" fill="#000" opacity="1">3,000</text><text text-anchor="end" transform="translate(-7,153)" font-family="sans-serif" font-size="10px" fill="#000" opacity="1">4,000</text><text text-anchor="end" transform="translate(-7,115.5)" font-family="sans-serif" font-size="10px" fill="#000" opacity="1">5,000</text><text text-anchor="end" transform="translate(-7,78)" font-family="sans-serif" font-size="10px" fill="#000" opacity="1">6,000</text><text text-anchor="end" transform="translate(-7,40.5)" font-family="sans-serif" font-size="10px" fill="#000" opacity="1">7,000</text><text text-anchor="end" transform="translate(-7,3)" font-family="sans-serif" font-size="10px" fill="#000" opacity="1">8,000</text></g><g class="mark-rule role-axis-domain" pointer-events="none"><line transform="translate(0,300)" x2="0" y2="-300" stroke="#888" stroke-width="1" opacity="1"/></g><g class="mark-text role-axis-title" pointer-events="none"><text text-anchor="middle" transform="translate(-36.0244140625,150) rotate(-90) translate(0,-2)" font-family="sans-serif" font-size="11px" font-weight="bold" fill="#000" opacity="1">Seasonal Profit Per Square</text></g></g><path class="foreground" aria-hidden="true" d="" pointer-events="none" display="none"/></g></g><g class="mark-rect role-mark marks" role="graphics-object" aria-roledescription="rect mark container"><path aria-label="Item: Ancient Fruit; Seasonal Profit Per Square: 4600; Processed By: Jar" role="graphics-symbol" aria-roledescription="bar" d="M10,127.50000000000001h20v172.5h-20Z" fill="#B0D7E1"/><path aria-label="Item: Ancient Fruit; Seasonal Profit Per Square: 6600; Processed By: Keg" role="graphics-symbol" aria-roledescription="bar" d="M30,52.500000000000014h20v247.5h-20Z" fill="#f1802d"/><path aria-label="Item: Apple; Seasonal Profit Per Square: 3000; Processed By: Jar" role="graphics-symbol" aria-roledescription="bar" d="M60,187.5h20v112.5h-20Z" fill="#B0D7E1"/><path aria-label="Item: Apple; Seasonal Profit Per Square: 4400; Processed By: Keg" role="graphics-symbol" aria-roledescription="bar" d="M80,135h20v165h-20Z" fill="#f1802d"/><path aria-label="Item: Apricot; Seasonal Profit Per Square: 2200; Processed By: Jar" role="graphics-symbol" aria-roledescription="bar" d="M110,217.5h20v82.5h-20Z" fill="#B0D7E1"/><path aria-label="Item: Apricot; Seasonal Profit Per Square: 2200; Processed By: Keg" role="graphics-symbol" aria-roledescription="bar" d="M130,217.5h20v82.5h-20Z" fill="#f1802d"/><path aria-label="Item: Blueberry; Seasonal Profit Per Square: 1720; Processed By: Jar" role="graphics-symbol" aria-roledescription="bar" d="M160,235.5h20v64.5h-20Z" fill="#B0D7E1"/><path aria-label="Item: Blueberry; Seasonal Profit Per Square: 1720; Processed By: Keg" role="graphics-symbol" aria-roledescription="bar" d="M180,235.5h20v64.5h-20Z" fill="#f1802d"/><path aria-label="Item: Cactus Fruit; Seasonal Profit Per Square: 1050; Processed By: Jar" role="graphics-symbol" aria-roledescription="bar" d="M210,260.625h20v39.375h-20Z" fill="#B0D7E1"/><path aria-label="Item: Cactus Fruit; Seasonal Profit Per Square: 1200; Processed By: Keg" role="graphics-symbol" aria-roledescription="bar" d="M230,255h20v45h-20Z" fill="#f1802d"/><path aria-label="Item: Cherry; Seasonal Profit Per Square: 2480; Processed By: Jar" role="graphics-symbol" aria-roledescription="bar" d="M260,206.99999999999997h20v93.00000000000003h-20Z" fill="#B0D7E1"/><path aria-label="Item: Cherry; Seasonal Profit Per Square: 3320; Processed By: Keg" role="graphics-symbol" aria-roledescription="bar" d="M280,175.5h20v124.5h-20Z" fill="#f1802d"/><path aria-label="Item: Cranberry; Seasonal Profit Per Square: 1760; Processed By: Jar" role="graphics-symbol" aria-roledescription="bar" d="M310,234h20v66h-20Z" fill="#B0D7E1"/><path aria-label="Item: Cranberry; Seasonal Profit Per Square: 2010; Processed By: Keg" role="graphics-symbol" aria-roledescription="bar" d="M330,224.625h20v75.375h-20Z" fill="#f1802d"/><path aria-label="Item: Grape; Seasonal Profit Per Square: 1200; Processed By: Jar" role="graphics-symbol" aria-roledescription="bar" d="M360,255h20v45h-20Z" fill="#B0D7E1"/><path aria-label="Item: Grape; Seasonal Profit Per Square: 1380; Processed By: Keg" role="graphics-symbol" aria-roledescription="bar" d="M380,248.25h20v51.75h-20Z" fill="#f1802d"/><path aria-label="Item: Melon; Seasonal Profit Per Square: 1020; Processed By: Jar" role="graphics-symbol" aria-roledescription="bar" d="M410,261.75h20v38.25h-20Z" fill="#B0D7E1"/><path aria-label="Item: Melon; Seasonal Profit Per Square: 1420; Processed By: Keg" role="graphics-symbol" aria-roledescription="bar" d="M430,246.75h20v53.25h-20Z" fill="#f1802d"/><path aria-label="Item: Orange; Seasonal Profit Per Square: 3000; Processed By: Jar" role="graphics-symbol" aria-roledescription="bar" d="M460,187.5h20v112.5h-20Z" fill="#B0D7E1"/><path aria-label="Item: Orange; Seasonal Profit Per Square: 4400; Processed By: Keg" role="graphics-symbol" aria-roledescription="bar" d="M480,135h20v165h-20Z" fill="#f1802d"/><path aria-label="Item: Peach; Seasonal Profit Per Square: 3240; Processed By: Jar" role="graphics-symbol" aria-roledescription="bar" d="M510,178.5h20v121.5h-20Z" fill="#B0D7E1"/><path aria-label="Item: Peach; Seasonal Profit Per Square: 5760; Processed By: Keg" role="graphics-symbol" aria-roledescription="bar" d="M530,84.00000000000001h20v216h-20Z" fill="#f1802d"/><path aria-label="Item: Pomegranate; Seasonal Profit Per Square: 3240; Processed By: Jar" role="graphics-symbol" aria-roledescription="bar" d="M560,178.5h20v121.5h-20Z" fill="#B0D7E1"/><path aria-label="Item: Pomegranate; Seasonal Profit Per Square: 5760; Processed By: Keg" role="graphics-symbol" aria-roledescription="bar" d="M580,84.00000000000001h20v216h-20Z" fill="#f1802d"/><path aria-label="Item: Rhubarb; Seasonal Profit Per Square: 880; Processed By: Jar" role="graphics-symbol" aria-roledescription="bar" d="M610,267h20v33h-20Z" fill="#B0D7E1"/><path aria-label="Item: Rhubarb; Seasonal Profit Per Square: 1220; Processed By: Keg" role="graphics-symbol" aria-roledescription="bar" d="M630,254.25h20v45.75h-20Z" fill="#f1802d"/><path aria-label="Item: Starfruit; Seasonal Profit Per Square: 2700; Processed By: Jar" role="graphics-symbol" aria-roledescription="bar" d="M660,198.75h20v101.25h-20Z" fill="#B0D7E1"/><path aria-label="Item: Starfruit; Seasonal Profit Per Square: 4100; Processed By: Keg" role="graphics-symbol" aria-roledescription="bar" d="M680,146.25h20v153.75h-20Z" fill="#f1802d"/><path aria-label="Item: Strawberry; Seasonal Profit Per Square: 1350; Processed By: Jar" role="graphics-symbol" aria-roledescription="bar" d="M710,249.375h20v50.625h-20Z" fill="#B0D7E1"/><path aria-label="Item: Strawberry; Seasonal Profit Per Square: 1700; Processed By: Keg" role="graphics-symbol" aria-roledescription="bar" d="M730,236.25h20v63.75h-20Z" fill="#f1802d"/><path aria-label="Item: Sweet Gem Berry; Seasonal Profit Per Square: 5050; Processed By: Jar" role="graphics-symbol" aria-roledescription="bar" d="M760,110.625h20v189.375h-20Z" fill="#B0D7E1"/><path aria-label="Item: Sweet Gem Berry; Seasonal Profit Per Square: 8000; Processed By: Keg" role="graphics-symbol" aria-roledescription="bar" d="M780,0h20v300h-20Z" fill="#f1802d"/></g><g class="mark-group role-legend" role="graphics-symbol" aria-roledescription="legend" aria-label="Symbol legend titled 'Processed By' for fill color with 2 values: Jar, Keg"><g transform="translate(828,0)"><path class="background" aria-hidden="true" d="M0,0h73v40h-73Z" pointer-events="none"/><g><g class="mark-group role-legend-entry"><g transform="translate(0,16)"><path class="background" aria-hidden="true" d="M0,0h0v0h0Z" pointer-events="none"/><g><g class="mark-group role-scope" role="graphics-object" aria-roledescription="group mark container"><g transform="translate(0,0)"><path class="background" aria-hidden="true" d="M0,0h33.79296875v11h-33.79296875Z" pointer-events="none" opacity="1"/><g><g class="mark-symbol role-legend-symbol" pointer-events="none"><path transform="translate(6,6)" d="M-5,-5h10v10h-10Z" fill="#B0D7E1" stroke-width="1.5" opacity="1"/></g><g class="mark-text role-legend-label" pointer-events="none"><text text-anchor="start" transform="translate(16,9)" font-family="sans-serif" font-size="10px" fill="#000" opacity="1">Jar</text></g></g><path class="foreground" aria-hidden="true" d="" pointer-events="none" display="none"/></g><g transform="translate(0,13)"><path class="background" aria-hidden="true" d="M0,0h33.79296875v11h-33.79296875Z" pointer-events="none" opacity="1"/><g><g class="mark-symbol role-legend-symbol" pointer-events="none"><path transform="translate(6,6)" d="M-5,-5h10v10h-10Z" fill="#f1802d" stroke-width="1.5" opacity="1"/></g><g class="mark-text role-legend-label" pointer-events="none"><text text-anchor="start" transform="translate(16,9)" font-family="sans-serif" font-size="10px" fill="#000" opacity="1">Keg</text></g></g><path class="foreground" aria-hidden="true" d="" pointer-events="none" display="none"/></g></g></g><path class="foreground" aria-hidden="true" d="" pointer-events="none" display="none"/></g></g><g class="mark-text role-legend-title" pointer-events="none"><text text-anchor="start" transform="translate(0,9)" font-family="sans-serif" font-size="11px" font-weight="bold" fill="#000" opacity="1">Processed By</text></g></g><path class="foreground" aria-hidden="true" d="" pointer-events="none" display="none"/></g></g><g class="mark-group role-title"><g transform="translate(405,-22)"><path class="background" aria-hidden="true" d="M0,0h0v0h0Z" pointer-events="none"/><g><g class="mark-text role-title-text" role="graphics-symbol" aria-roledescription="title" aria-label="Title text 'Fruit Seasonal Profit after Processing'" pointer-events="none"><text text-anchor="middle" transform="translate(0,10)" font-family="sans-serif" font-size="13px" font-weight="bold" fill="#000" opacity="1">Fruit Seasonal Profit after Processing</text></g></g><path class="foreground" aria-hidden="true" d="" pointer-events="none" display="none"/></g></g></g><path class="foreground" aria-hidden="true" d="" display="none"/></g></g></g></svg>