<svg xmlns="http://www.w3.org/2000/svg" xmlns:xlink="http://www.w3.org/1999/xlink" version="1.1" class="marks" width="1159" height="416" viewBox="0 0 1159 416"><rect width="1159" height="416" fill="white"/><g fill="none" stroke-miterlimit="10" transform="translate(53,27)"><g class="mark-group role-frame root" role="graphics-object" aria-roledescription="group mark container"><g transform="translate(0,0)"><path class="background" aria-hidden="true" d="M0.5,0.5h1010v300h-1010Z" stroke="#ddd"/><g><g class="mark-group role-axis" aria-hidden="true"><g transform="translate(0.5,0.5)"><path class="background" aria-hidden="true" d="M0,0h0v0h0Z" pointer-events="none"/><g><g class="mark-rule role-axis-grid" pointer-events="none"><line transform="translate(0,300)" x2="1010" y2="0" stroke="#ddd" stroke-width="1" opacity="1"/><line transform="translate(0,267)" x2="1010" y2="0" stroke="#ddd" stroke-width="1" opacity="1"/><line transform="translate(0,233)" x2="1010" y2="0" stroke="#ddd" stroke-width="1" opacity="1"/><line transform="translate(0,200)" x2="1010" y2="0" stroke="#ddd" stroke-width="1" opacity="1"/><line transform="translate(0,167)" x2="1010" y2="0" stroke="#ddd" stroke-width="1" opacity="1"/><line transform="translate(0,133)" x2="1010" y2="0" stroke="#ddd" stroke-width="1" opacity="1"/><line transform="translate(0,100)" x2="1010" y2="0" stroke="#ddd" stroke-width="1" opacity="1"/><line transform="translate(0,67)" x2="1010" y2="0" stroke="#ddd" stroke-width="1" opacity="1"/><line transform="translate(0,33)" x2="1010" y2="0" stroke="#ddd" stroke-width="1" opacity="1"/><line transform="translate(0,0)" x2="1010" y2="0" stroke="#ddd" stroke-width="1" opacity="1"/></g></g><path class="foreground" aria-hidden="true" d="" pointer-events="none" display="none"/></g></g><g class="mark-group role-axis" role="graphics-symbol" aria-roledescription="axis" aria-label="X-axis titled 'Item' for a discrete scale with 20 values: Amaranth, Artichoke, Beet, Bok Choy, Cauliflower, ending with Yam"><g transform="translate(0.5,300.5)"><path class="background" aria-hidden="true" d="M0,0h0v0h0Z" pointer-events="none"/><g><g class="mark-rule role-axis-tick" pointer-events="none"><line transform="translate(30,0)" x2="0" y2="5" stroke="#888" stroke-width="1" opacity="1"/><line transform="translate(80,0)" x2="0" y2="5" stroke="#888" stroke-width="1" opacity="1"/><line transform="translate(130,0)" x2="0" y2="5" stroke="#888" stroke-width="1" opacity="1"/><line transform="translate(180,0)" x2="0" y2="5" stroke="#888" stroke-width="1" opacity="1"/><line transform="translate(230,0)" x2="0" y2="5" stroke="#888" stroke-width="1" opacity="1"/><line transform="translate(280,0)" x2="0" y2="5" stroke="#888" stroke-width="1" opacity="1"/><line transform="translate(330,0)" x2="0" y2="5" stroke="#888" stroke-width="1" opacity="1"/><line transform="translate(380,0)" x2="0" y2="5" stroke="#888" stroke-width="1" opacity="1"/><line transform="translate(430,0)" x2="0" y2="5" stroke="#888" stroke-width="1" opacity="1"/><line transform="translate(480,0)" x2="0" y2="5" stroke="#888" stroke-width="1" opacity="1"/><line transform="translate(530,0)" x2="0" y2="5" stroke="#888" stroke-width="1" opacity="1"/><line transform="translate(580,0)" x2="0" y2="5" stroke="#888" stroke-width="1" opacity="1"/><line transform="translate(630,0)" x2="0" y2="5" stroke="#888" stroke-width="1" opacity="1"/><line transform="translate(680,0)" x2="0" y2="5" stroke="#888" stroke-width="1" opacity="1"/><line transform="translate(730,0)" x2="0" y2="5" stroke="#888" stroke-width="1" opacity="1"/><line transform="translate(780,0)" x2="0" y2="5" stroke="#888" stroke-width="1" opacity="1"/><line transform="translate(830,0)" x2="0" y2="5" stroke="#888" stroke-width="1" opacity="1"/><line transform="translate(880,0)" x2="0" y2="5" stroke="#888" stroke-width="1" opacity="1"/><line transform="translate(930,0)" x2="0" y2="5" stroke="#888" stroke-width="1" opacity="1"/><line transform="translate(980,0)" x2="0" y2="5" stroke="#888" stroke-width="1" opacity="1"/></g><g class="mark-text role-axis-label" pointer-events="none"><text text-anchor="end" transform="translate(29.5,7) rotate(270) translate(0,3)" font-family="sans-serif" font-size="10px" fill="#000" opacity="1">Amaranth</text><text text-anchor="end" transform="translate(79.5,7) rotate(270) translate(0,3)" font-family="sans-serif" font-size="10px" fill="#000" opacity="1">Artichoke</text><text text-anchor="end" transform="translate(129.5,7) rotate(270) translate(0,3)" font-family="sans-serif" font-size="10px" fill="#000" opacity="1">Beet</text><text text-anchor="end" transform="translate(179.5,7) rotate(270) translate(0,3)" font-family="sans-serif" font-size="10px" fill="#000" opacity="1">Bok Choy</text><text text-anchor="end" transform="translate(229.5,7) rotate(270) translate(0,3)" font-family="sans-serif" font-size="10px" fill="#000" opacity="1">Cauliflower</text><text text-anchor="end" transform="translate(279.5,7) rotate(270) translate(0,3)" font-family="sans-serif" font-size="10px" fill="#000" opacity="1">Corn</text><text text-anchor="end" transform="translate(329.5,7) rotate(270) translate(0,3)" font-family="sans-serif" font-size="10px" fill="#000" opacity="1">Eggplant</text><text text-anchor="end" transform="translate(379.5,7) rotate(270) translate(0,3)" font-family="sans-serif" font-size="10px" fill="#000" opacity="1">Garlic</text><text text-anchor="end" transform="translate(429.5,7) rotate(270) translate(0,3)" font-family="sans-serif" font-size="10px" fill="#000" opacity="1">Green Bean</text><text text-anchor="end" transform="translate(479.5,7) rotate(270) translate(0,3)" font-family="sans-serif" font-size="10px" fill="#000" opacity="1">Hops</text><text text-anchor="end" transform="translate(529.5,7) rotate(270) translate(0,3)" font-family="sans-serif" font-size="10px" fill="#000" opacity="1">Hot Pepper</text><text text-anchor="end" transform="translate(579.5,7) rotate(270) translate(0,3)" font-family="sans-serif" font-size="10px" fill="#000" opacity="1">Kale</text><text text-anchor="end" transform="translate(629.5,7) rotate(270) translate(0,3)" font-family="sans-serif" font-size="10px" fill="#000" opacity="1">Parsnip</text><text text-anchor="end" transform="translate(679.5,7) rotate(270) translate(0,3)" font-family="sans-serif" font-size="10px" fill="#000" opacity="1">Potato</text><text text-anchor="end" transform="translate(729.5,7) rotate(270) translate(0,3)" font-family="sans-serif" font-size="10px" fill="#000" opacity="1">Pumpkin</text><text text-anchor="end" transform="translate(779.5,7) rotate(270) translate(0,3)" font-family="sans-serif" font-size="10px" fill="#000" opacity="1">Radish</text><text text-anchor="end" transform="translate(829.5,7) rotate(270) translate(0,3)" font-family="sans-serif" font-size="10px" fill="#000" opacity="1">Red Cabbage</text><text text-anchor="end" transform="translate(879.5,7) rotate(270) translate(0,3)" font-family="sans-serif" font-size="10px" fill="#000" opacity="1">Tomato</text><text text-anchor="end" transform="translate(929.5,7) rotate(270) translate(0,3)" font-family="sans-serif" font-size="10px" fill="#000" opacity="1">Wheat</text><text text-anchor="end" transform="translate(979.5,7) rotate(270) translate(0,3)" font-family="sans-serif" font-size="10px" fill="#000" opacity="1">Yam</text></g><g class="mark-rule role-axis-domain" pointer-events="none"><line transform="translate(0,0)" x2="1010" y2="0" stroke="#888" stroke-width="1" opacity="1"/></g><g class="mark-text role-axis-title" pointer-events="none"><text text-anchor="middle" transform="translate(505,81.7138671875)" font-family="sans-serif" font-size="11px" font-weight="bold" fill="#000" opacity="1">Item</text></g></g><path class="foreground" aria-hidden="true" d="" pointer-events="none" display="none"/></g></g><g class="mark-group role-axis" role="graphics-symbol" aria-roledescription="axis" aria-label="Y-axis titled 'Seasonal Profit Per Square' for a linear scale with values from 0 to 1,800"><g transform="translate(0.5,0.5)"><path class="background" aria-hidden="true" d="M0,0h0v0h0Z" pointer-events="none"/><g><g class="mark-rule role-axis-tick" pointer-events="none"><line transform="translate(0,300)" x2="-5" y2="0" stroke="#888" stroke-width="1" opacity="1"/><line transform="translate(0,267)" x2="-5" y2="0" stroke="#888" stroke-width="1" opacity="1"/><line transform="translate(0,233)" x2="-5" y2="0" stroke="#888" stroke-width="1" opacity="1"/><line transform="translate(0,200)" x2="-5" y2="0" stroke="#888" stroke-width="1" opacity="1"/><line transform="translate(0,167)" x2="-5" y2="0" stroke="#888" stroke-width="1" opacity="1"/><line transform="translate(0,133)" x2="-5" y2="0" stroke="#888" stroke-width="1" opacity="1"/><line transform="translate(0,100)" x2="-5" y2="0" stroke="#888" stroke-width="1" opacity="1"/><line transform="translate(0,67)" x2="-5" y2="0" stroke="#888" stroke-width="1" opacity="1"/><line transform="translate(0,33)" x2="-5" y2="0" stroke="#888" stroke-width="1" opacity="1"/><line transform="translate(0,0)" x2="-5" y2="0" stroke="#888" stroke-width="1" opacity="1"/></g><g class="mark-text role-axis-label" pointer-events="none"><text text-anchor="end" transform="translate(-7,303)" font-family="sans-serif" font-size="10px" fill="#000" opacity="1">0</text><text text-anchor="end" transform="translate(-7,269.66666666666663)" font-family="sans-serif" font-size="10px" fill="#000" opacity="1">200</text><text text-anchor="end" transform="translate(-7,236.33333333333334)" font-family="sans-serif" font-size="10px" fill="#000" opacity="1">400</text><text text-anchor="end" transform="translate(-7,203.00000000000003)" font-family="sans-serif" font-size="10px" fill="#000" opacity="1">600</text><text text-anchor="end" transform="translate(-7,169.66666666666669)" font-family="sans-serif" font-size="10px" fill="#000" opacity="1">800</text><text text-anchor="end" transform="translate(-7,136.33333333333331)" font-family="sans-serif" font-size="10px" fill="#000" opacity="1">1,000</text><text text-anchor="end" transform="translate(-7,103.00000000000001)" font-family="sans-serif" font-size="10px" fill="#000" opacity="1">1,200</text><text text-anchor="end" transform="translate(-7,69.66666666666666)" font-family="sans-serif" font-size="10px" fill="#000" opacity="1">1,400</text><text text-anchor="end" transform="translate(-7,36.33333333333335)" font-family="sans-serif" font-size="10px" fill="#000" opacity="1">1,600</text><text text-anchor="end" transform="translate(-7,3)" font-family="sans-serif" font-size="10px" fill="#000" opacity="1">1,800</text></g><g class="mark-rule role-axis-domain" pointer-events="none"><line transform="translate(0,300)" x2="0" y2="-300" stroke="#888" stroke-width="1" opacity="1"/></g><g class="mark-text role-axis-title" pointer-events="none"><text text-anchor="middle" transform="translate(-36.0244140625,150) rotate(-90) translate(0,-2)" font-family="sans-serif" font-size="11px" font-weight="bold" fill="#000" opacity="1">Seasonal Profit Per Square</text></g></g><path class="foreground" aria-hidden="true" d="" pointer-events="none" display="none"/></g></g><g class="mark-rect role-mark marks" role="graphics-object" aria-roledescription="rect mark container"><path aria-label="Item: Amaranth; Seasonal Profit Per Square: 1330; Processed By: Jar" role="graphics-symbol" aria-roledescription="bar" d="M10,78.33333333333331h20v221.66666666666669h-20Z" fill="#B0D7E1"/><path aria-label="Item: Amaranth; Seasonal Profit Per Square: 1278; Processed By: Keg" role="graphics-symbol" aria-roledescription="bar" d="M30,87.00000000000001h20v213h-20Z" fill="#f1802d"/><path aria-label="Item: Artichoke; Seasonal Profit Per Square: 1080; Processed By: Jar" role="graphics-symbol" aria-roledescription="bar" d="M60,120h20v180h-20Z" fill="#B0D7E1"/><path aria-label="Item: Artichoke; Seasonal Profit Per Square: 1050; Processed By: Keg" role="graphics-symbol" aria-roledescription="bar" d="M80,124.99999999999999h20v175h-20Z" fill="#f1802d"/><path aria-label="Item: Beet; Seasonal Profit Per Square: 980; Processed By: Jar" role="graphics-symbol" aria-roledescription="bar" d="M110,136.66666666666669h20v163.33333333333331h-20Z" fill="#B0D7E1"/><path aria-label="Item: Beet; Seasonal Profit Per Square: 880; Processed By: Keg" role="graphics-symbol" aria-roledescription="bar" d="M130,153.33333333333331h20v146.66666666666669h-20Z" fill="#f1802d"/><path aria-label="Item: Bok Choy; Seasonal Profit Per Square: 1210; Processed By: Jar" role="graphics-symbol" aria-roledescription="bar" d="M160,98.33333333333331h20v201.66666666666669h-20Z" fill="#B0D7E1"/><path aria-label="Item: Bok Choy; Seasonal Profit Per Square: 1030; Processed By: Keg" role="graphics-symbol" aria-roledescription="bar" d="M180,128.33333333333334h20v171.66666666666666h-20Z" fill="#f1802d"/><path aria-label="Item: Cauliflower; Seasonal Profit Per Square: 720; Processed By: Jar" role="graphics-symbol" aria-roledescription="bar" d="M210,180h20v120h-20Z" fill="#B0D7E1"/><path aria-label="Item: Cauliflower; Seasonal Profit Per Square: 706; Processed By: Keg" role="graphics-symbol" aria-roledescription="bar" d="M230,182.33333333333331h20v117.66666666666669h-20Z" fill="#f1802d"/><path aria-label="Item: Corn; Seasonal Profit Per Square: 450; Processed By: Jar" role="graphics-symbol" aria-roledescription="bar" d="M260,225h20v75h-20Z" fill="#B0D7E1"/><path aria-label="Item: Corn; Seasonal Profit Per Square: 298; Processed By: Keg" role="graphics-symbol" aria-roledescription="bar" d="M280,250.33333333333334h20v49.66666666666666h-20Z" fill="#f1802d"/><path aria-label="Item: Eggplant; Seasonal Profit Per Square: 830; Processed By: Jar" role="graphics-symbol" aria-roledescription="bar" d="M310,161.66666666666666h20v138.33333333333334h-20Z" fill="#B0D7E1"/><path aria-label="Item: Eggplant; Seasonal Profit Per Square: 655; Processed By: Keg" role="graphics-symbol" aria-roledescription="bar" d="M330,190.83333333333331h20v109.16666666666669h-20Z" fill="#f1802d"/><path aria-label="Item: Garlic; Seasonal Profit Per Square: 980; Processed By: Jar" role="graphics-symbol" aria-roledescription="bar" d="M360,136.66666666666669h20v163.33333333333331h-20Z" fill="#B0D7E1"/><path aria-label="Item: Garlic; Seasonal Profit Per Square: 770; Processed By: Keg" role="graphics-symbol" aria-roledescription="bar" d="M380,171.66666666666666h20v128.33333333333334h-20Z" fill="#f1802d"/><path aria-label="Item: Green Bean; Seasonal Profit Per Square: 720; Processed By: Jar" role="graphics-symbol" aria-roledescription="bar" d="M410,180h20v120h-20Z" fill="#B0D7E1"/><path aria-label="Item: Green Bean; Seasonal Profit Per Square: 480; Processed By: Keg" role="graphics-symbol" aria-roledescription="bar" d="M430,220.00000000000003h20v79.99999999999997h-20Z" fill="#f1802d"/><path aria-label="Item: Hops; Seasonal Profit Per Square: 1640; Processed By: Jar" role="graphics-symbol" aria-roledescription="bar" d="M460,26.66666666666667h20v273.3333333333333h-20Z" fill="#B0D7E1"/><path aria-label="Item: Hops; Seasonal Profit Per Square: 892; Processed By: Keg" role="graphics-symbol" aria-roledescription="bar" d="M480,151.33333333333334h20v148.66666666666666h-20Z" fill="#f1802d"/><path aria-label="Item: Hot Pepper; Seasonal Profit Per Square: 1000; Processed By: Jar" role="graphics-symbol" aria-roledescription="bar" d="M510,133.33333333333331h20v166.66666666666669h-20Z" fill="#B0D7E1"/><path aria-label="Item: Hot Pepper; Seasonal Profit Per Square: 680; Processed By: Keg" role="graphics-symbol" aria-roledescription="bar" d="M530,186.66666666666666h20v113.33333333333334h-20Z" fill="#f1802d"/><path aria-label="Item: Kale; Seasonal Profit Per Square: 1010; Processed By: Jar" role="graphics-symbol" aria-roledescription="bar" d="M560,131.66666666666666h20v168.33333333333334h-20Z" fill="#B0D7E1"/><path aria-label="Item: Kale; Seasonal Profit Per Square: 918; Processed By: Keg" role="graphics-symbol" aria-roledescription="bar" d="M580,147h20v153h-20Z" fill="#f1802d"/><path aria-label="Item: Parsnip; Seasonal Profit Per Square: 700; Processed By: Jar" role="graphics-symbol" aria-roledescription="bar" d="M610,183.33333333333334h20v116.66666666666666h-20Z" fill="#B0D7E1"/><path aria-label="Item: Parsnip; Seasonal Profit Per Square: 448; Processed By: Keg" role="graphics-symbol" aria-roledescription="bar" d="M630,225.33333333333331h20v74.66666666666669h-20Z" fill="#f1802d"/><path aria-label="Item: Potato; Seasonal Profit Per Square: 958; Processed By: Jar" role="graphics-symbol" aria-roledescription="bar" d="M660,140.33333333333331h20v159.66666666666669h-20Z" fill="#B0D7E1"/><path aria-label="Item: Potato; Seasonal Profit Per Square: 814; Processed By: Keg" role="graphics-symbol" aria-roledescription="bar" d="M680,164.33333333333331h20v135.66666666666669h-20Z" fill="#f1802d"/><path aria-label="Item: Pumpkin; Seasonal Profit Per Square: 1280; Processed By: Jar" role="graphics-symbol" aria-roledescription="bar" d="M710,86.66666666666666h20v213.33333333333334h-20Z" fill="#B0D7E1"/><path aria-label="Item: Pumpkin; Seasonal Profit Per Square: 1340; Processed By: Keg" role="graphics-symbol" aria-roledescription="bar" d="M730,76.66666666666666h20v223.33333333333334h-20Z" fill="#f1802d"/><path aria-label="Item: Radish; Seasonal Profit Per Square: 880; Processed By: Jar" role="graphics-symbol" aria-roledescription="bar" d="M760,153.33333333333331h20v146.66666666666669h-20Z" fill="#B0D7E1"/><path aria-label="Item: Radish; Seasonal Profit Per Square: 768; Processed By: Keg" role="graphics-symbol" aria-roledescription="bar" d="M780,171.99999999999997h20v128.00000000000003h-20Z" fill="#f1802d"/><path aria-label="Item: Red Cabbage; Seasonal Profit Per Square: 1610; Processed By: Jar" role="graphics-symbol" aria-roledescription="bar" d="M810,31.666666666666654h20v268.33333333333337h-20Z" fill="#B0D7E1"/><path aria-label="Item: Red Cabbage; Seasonal Profit Per Square: 1655; Processed By: Keg" role="graphics-symbol" aria-roledescription="bar" d="M830,24.166666666666682h20v275.8333333333333h-20Z" fill="#f1802d"/><path aria-label="Item: Tomato; Seasonal Profit Per Square: 800; Processed By: Jar" role="graphics-symbol" aria-roledescription="bar" d="M860,166.66666666666669h20v133.33333333333331h-20Z" fill="#B0D7E1"/><path aria-label="Item: Tomato; Seasonal Profit Per Square: 625; Processed By: Keg" role="graphics-symbol" aria-roledescription="bar" d="M880,195.83333333333334h20v104.16666666666666h-20Z" fill="#f1802d"/><path aria-label="Item: Wheat; Seasonal Profit Per Square: 590; Processed By: Jar" role="graphics-symbol" aria-roledescription="bar" d="M910,201.66666666666669h20v98.33333333333331h-20Z" fill="#B0D7E1"/><path aria-label="Item: Wheat; Seasonal Profit Per Square: 326; Processed By: Keg" role="graphics-symbol" aria-roledescription="bar" d="M930,245.66666666666666h20v54.33333333333334h-20Z" fill="#f1802d"/><path aria-label="Item: Yam; Seasonal Profit Per Square: 680; Processed By: Jar" role="graphics-symbol" aria-roledescription="bar" d="M960,186.66666666666666h20v113.33333333333334h-20Z" fill="#B0D7E1"/><path aria-label="Item: Yam; Seasonal Profit Per Square: 660; Processed By: Keg" role="graphics-symbol" aria-roledescription="bar" d="M980,190h20v110h-20Z" fill="#f1802d"/></g><g class="mark-group role-legend" role="graphics-symbol" aria-roledescription="legend" aria-label="Symbol legend titled 'Processed By' for fill color with 2 values: Jar, Keg"><g transform="translate(1028,0)"><path class="background" aria-hidden="true" d="M0,0h73v40h-73Z" pointer-events="none"/><g><g class="mark-group role-legend-entry"><g transform="translate(0,16)"><path class="background" aria-hidden="true" d="M0,0h0v0h0Z" pointer-events="none"/><g><g class="mark-group role-scope" role="graphics-object" aria-roledescription="group mark container"><g transform="translate(0,0)"><path class="background" aria-hidden="true" d="M0,0h33.79296875v11h-33.79296875Z" pointer-events="none" opacity="1"/><g><g class="mark-symbol role-legend-symbol" pointer-events="none"><path transform="translate(6,6)" d="M-5,-5h10v10h-10Z" fill="#B0D7E1" stroke-width="1.5" opacity="1"/></g><g class="mark-text role-legend-label" pointer-events="none"><text text-anchor="start" transform="translate(16,9)" font-family="sans-serif" font-size="10px" fill="#000" opacity="1">Jar</text></g></g><path class="foreground" aria-hidden="true" d="" pointer-events="none" display="none"/></g><g transform="translate(0,13)"><path class="background" aria-hidden="true" d="M0,0h33.79296875v11h-33.79296875Z" pointer-events="none" opacity="1"/><g><g class="mark-symbol role-legend-symbol" pointer-events="none"><path transform="translate(6,6)" d="M-5,-5h10v10h-10Z" fill="#f1802d" stroke-width="1.5" opacity="1"/></g><g class="mark-text role-legend-label" pointer-events="none"><text text-anchor="start" transform="translate(16,9)" font-family="sans-serif" font-size="10px" fill="#000" opacity="1">Keg</text></g></g><path class="foreground" aria-hidden="true" d="" pointer-events="none" display="none"/></g></g></g><path class="foreground" aria-hidden="true" d="" pointer-events="none" display="none"/></g></g><g class="mark-text role-legend-title" pointer-events="none"><text text-anchor="start" transform="translate(0,9)" font-family="sans-serif" font-size="11px" font-weight="bold" fill="#000" opacity="1">Processed By</text></g></g><path class="foreground" aria-hidden="true" d="" pointer-events="none" display="none"/></g></g><g class="mark-group role-title"><g transform="translate(505,-22)"><path class="background" aria-hidden="true" d="M0,0h0v0h0Z" pointer-events="none"/><g><g class="mark-text role-title-text" role="graphics-symbol" aria-roledescription="title" aria-label="Title text 'Vegetable Seasonal Profit after Processing'" pointer-events="none"><text text-anchor="middle" transform="translate(0,10)" font-family="sans-serif" font-size="13px" font-weight="bold" fill="#000" opacity="1">Vegetable Seasonal Profit after Processing</text></g></g><path class="foreground" aria-hidden="true" d="" pointer-events="none" display="none"/></g></g></g><path class="foreground" aria-hidden="true" d="" display="none"/></g></g></g></svg>